<mxfile host="app.diagrams.net" modified="2022-04-07T09:24:38.098Z" agent="5.0 (Windows NT 10.0; Win64; x64) AppleWebKit/537.36 (KHTML, like Gecko) Chrome/100.0.4896.75 Safari/537.36" etag="2uoW0cKNSdIBbX1wmear" version="17.4.0" type="github">
  <diagram id="brf7mpU76pF6LPh9Hq3d" name="Page-1">
    <mxGraphModel dx="1422" dy="794" grid="1" gridSize="10" guides="1" tooltips="1" connect="1" arrows="1" fold="1" page="1" pageScale="1" pageWidth="850" pageHeight="1100" math="0" shadow="0">
      <root>
        <mxCell id="0" />
        <mxCell id="1" parent="0" />
        <mxCell id="BisqOauFEd4WfF3AfBks-1" value="Web" style="rounded=1;whiteSpace=wrap;html=1;fillColor=#b1ddf0;strokeColor=#10739e;" vertex="1" parent="1">
          <mxGeometry x="165" y="40" width="80" height="60" as="geometry" />
        </mxCell>
        <mxCell id="BisqOauFEd4WfF3AfBks-2" value="Mobile" style="rounded=1;whiteSpace=wrap;html=1;fillColor=#b1ddf0;strokeColor=#10739e;" vertex="1" parent="1">
          <mxGeometry x="280" y="80" width="80" height="60" as="geometry" />
        </mxCell>
        <mxCell id="BisqOauFEd4WfF3AfBks-3" value="Bluetooth" style="rounded=1;whiteSpace=wrap;html=1;fillColor=#b1ddf0;strokeColor=#10739e;" vertex="1" parent="1">
          <mxGeometry x="425" y="80" width="80" height="60" as="geometry" />
        </mxCell>
        <mxCell id="BisqOauFEd4WfF3AfBks-4" value="Arduino" style="rounded=1;whiteSpace=wrap;html=1;fillColor=#b1ddf0;strokeColor=#10739e;" vertex="1" parent="1">
          <mxGeometry x="530" y="80" width="80" height="60" as="geometry" />
        </mxCell>
        <mxCell id="BisqOauFEd4WfF3AfBks-5" value="Wi-Fi" style="rounded=1;whiteSpace=wrap;html=1;fillColor=#b1ddf0;strokeColor=#10739e;" vertex="1" parent="1">
          <mxGeometry x="640" y="80" width="80" height="60" as="geometry" />
        </mxCell>
        <mxCell id="BisqOauFEd4WfF3AfBks-6" value="Cloud" style="rounded=1;whiteSpace=wrap;html=1;fillColor=#b1ddf0;strokeColor=#10739e;" vertex="1" parent="1">
          <mxGeometry x="745" y="40" width="80" height="60" as="geometry" />
        </mxCell>
        <mxCell id="BisqOauFEd4WfF3AfBks-10" value="" style="rounded=1;whiteSpace=wrap;html=1;fillColor=#fff2cc;strokeColor=#d6b656;" vertex="1" parent="1">
          <mxGeometry x="190" y="190" width="20" height="450" as="geometry" />
        </mxCell>
        <mxCell id="BisqOauFEd4WfF3AfBks-11" value="" style="rounded=1;whiteSpace=wrap;html=1;fillColor=#fff2cc;strokeColor=#d6b656;" vertex="1" parent="1">
          <mxGeometry x="775" y="180" width="20" height="450" as="geometry" />
        </mxCell>
        <mxCell id="BisqOauFEd4WfF3AfBks-12" value="" style="endArrow=none;dashed=1;html=1;rounded=0;" edge="1" parent="1">
          <mxGeometry width="50" height="50" relative="1" as="geometry">
            <mxPoint x="200" y="180" as="sourcePoint" />
            <mxPoint x="200" y="110" as="targetPoint" />
          </mxGeometry>
        </mxCell>
        <mxCell id="BisqOauFEd4WfF3AfBks-16" value="" style="rounded=1;whiteSpace=wrap;html=1;fillColor=#fff2cc;strokeColor=#d6b656;" vertex="1" parent="1">
          <mxGeometry x="310" y="200" width="20" height="440" as="geometry" />
        </mxCell>
        <mxCell id="BisqOauFEd4WfF3AfBks-19" value="" style="endArrow=none;dashed=1;html=1;rounded=0;entryX=0.5;entryY=1;entryDx=0;entryDy=0;exitX=0.5;exitY=0;exitDx=0;exitDy=0;" edge="1" parent="1" source="BisqOauFEd4WfF3AfBks-11" target="BisqOauFEd4WfF3AfBks-6">
          <mxGeometry width="50" height="50" relative="1" as="geometry">
            <mxPoint x="490" y="310" as="sourcePoint" />
            <mxPoint x="540" y="260" as="targetPoint" />
          </mxGeometry>
        </mxCell>
        <mxCell id="BisqOauFEd4WfF3AfBks-20" value="" style="rounded=1;whiteSpace=wrap;html=1;fillColor=#fff2cc;strokeColor=#d6b656;" vertex="1" parent="1">
          <mxGeometry x="455" y="460" width="20" height="180" as="geometry" />
        </mxCell>
        <mxCell id="BisqOauFEd4WfF3AfBks-21" value="" style="rounded=1;whiteSpace=wrap;html=1;fillColor=#fff2cc;strokeColor=#d6b656;" vertex="1" parent="1">
          <mxGeometry x="560" y="360" width="20" height="80" as="geometry" />
        </mxCell>
        <mxCell id="BisqOauFEd4WfF3AfBks-22" value="" style="rounded=1;whiteSpace=wrap;html=1;fillColor=#fff2cc;strokeColor=#d6b656;" vertex="1" parent="1">
          <mxGeometry x="670" y="320" width="20" height="320" as="geometry" />
        </mxCell>
        <mxCell id="BisqOauFEd4WfF3AfBks-23" value="" style="rounded=1;whiteSpace=wrap;html=1;fillColor=#fff2cc;strokeColor=#d6b656;" vertex="1" parent="1">
          <mxGeometry x="630" y="570" width="10" height="60" as="geometry" />
        </mxCell>
        <mxCell id="BisqOauFEd4WfF3AfBks-24" value="Senzor temp" style="rounded=1;whiteSpace=wrap;html=1;fillColor=#f8cecc;strokeColor=#b85450;" vertex="1" parent="1">
          <mxGeometry x="610" y="500" width="40" height="60" as="geometry" />
        </mxCell>
        <mxCell id="BisqOauFEd4WfF3AfBks-25" value="" style="endArrow=classic;html=1;rounded=0;exitX=0;exitY=0.5;exitDx=0;exitDy=0;" edge="1" parent="1" source="BisqOauFEd4WfF3AfBks-23">
          <mxGeometry width="50" height="50" relative="1" as="geometry">
            <mxPoint x="490" y="510" as="sourcePoint" />
            <mxPoint x="590" y="600" as="targetPoint" />
          </mxGeometry>
        </mxCell>
        <mxCell id="BisqOauFEd4WfF3AfBks-26" value="" style="endArrow=none;dashed=1;html=1;rounded=0;entryX=0.5;entryY=1;entryDx=0;entryDy=0;" edge="1" parent="1" source="BisqOauFEd4WfF3AfBks-22" target="BisqOauFEd4WfF3AfBks-5">
          <mxGeometry width="50" height="50" relative="1" as="geometry">
            <mxPoint x="490" y="510" as="sourcePoint" />
            <mxPoint x="540" y="460" as="targetPoint" />
          </mxGeometry>
        </mxCell>
        <mxCell id="BisqOauFEd4WfF3AfBks-27" value="" style="endArrow=none;dashed=1;html=1;rounded=0;entryX=0.5;entryY=1;entryDx=0;entryDy=0;" edge="1" parent="1" source="BisqOauFEd4WfF3AfBks-21" target="BisqOauFEd4WfF3AfBks-4">
          <mxGeometry width="50" height="50" relative="1" as="geometry">
            <mxPoint x="490" y="510" as="sourcePoint" />
            <mxPoint x="540" y="460" as="targetPoint" />
          </mxGeometry>
        </mxCell>
        <mxCell id="BisqOauFEd4WfF3AfBks-28" value="" style="endArrow=none;dashed=1;html=1;rounded=0;entryX=0.5;entryY=1;entryDx=0;entryDy=0;exitX=0.5;exitY=0;exitDx=0;exitDy=0;" edge="1" parent="1" source="BisqOauFEd4WfF3AfBks-20" target="BisqOauFEd4WfF3AfBks-3">
          <mxGeometry width="50" height="50" relative="1" as="geometry">
            <mxPoint x="480" y="360" as="sourcePoint" />
            <mxPoint x="540" y="460" as="targetPoint" />
          </mxGeometry>
        </mxCell>
        <mxCell id="BisqOauFEd4WfF3AfBks-33" value="" style="rounded=1;whiteSpace=wrap;html=1;fillColor=#fff2cc;strokeColor=#d6b656;" vertex="1" parent="1">
          <mxGeometry x="490" y="370" width="10" height="200" as="geometry" />
        </mxCell>
        <mxCell id="BisqOauFEd4WfF3AfBks-34" value="" style="rounded=1;whiteSpace=wrap;html=1;fillColor=#fff2cc;strokeColor=#d6b656;" vertex="1" parent="1">
          <mxGeometry x="510" y="670" width="10" height="60" as="geometry" />
        </mxCell>
        <mxCell id="BisqOauFEd4WfF3AfBks-35" value="" style="rounded=1;whiteSpace=wrap;html=1;fillColor=#fff2cc;strokeColor=#d6b656;" vertex="1" parent="1">
          <mxGeometry x="530" y="480" width="10" height="160" as="geometry" />
        </mxCell>
        <mxCell id="BisqOauFEd4WfF3AfBks-36" value="" style="endArrow=classic;html=1;rounded=0;exitX=0.75;exitY=1;exitDx=0;exitDy=0;" edge="1" parent="1" source="BisqOauFEd4WfF3AfBks-33">
          <mxGeometry width="50" height="50" relative="1" as="geometry">
            <mxPoint x="500" y="650" as="sourcePoint" />
            <mxPoint x="570" y="640" as="targetPoint" />
            <Array as="points">
              <mxPoint x="500" y="760" />
              <mxPoint x="570" y="760" />
            </Array>
          </mxGeometry>
        </mxCell>
        <mxCell id="BisqOauFEd4WfF3AfBks-37" value="" style="endArrow=none;html=1;rounded=0;entryX=0.25;entryY=1;entryDx=0;entryDy=0;" edge="1" parent="1" target="BisqOauFEd4WfF3AfBks-34">
          <mxGeometry width="50" height="50" relative="1" as="geometry">
            <mxPoint x="515" y="760" as="sourcePoint" />
            <mxPoint x="540" y="360" as="targetPoint" />
            <Array as="points" />
          </mxGeometry>
        </mxCell>
        <mxCell id="BisqOauFEd4WfF3AfBks-38" value="lumini" style="rounded=1;whiteSpace=wrap;html=1;rotation=0;fillColor=#e3c800;fontColor=#000000;strokeColor=#B09500;" vertex="1" parent="1">
          <mxGeometry x="465" y="347.5" width="80" height="12.5" as="geometry" />
        </mxCell>
        <mxCell id="BisqOauFEd4WfF3AfBks-39" value="valve de caldura" style="rounded=1;whiteSpace=wrap;html=1;rotation=-90;fillColor=#e51400;fontColor=#ffffff;strokeColor=#B20000;" vertex="1" parent="1">
          <mxGeometry x="457.5" y="593.75" width="115" height="12.5" as="geometry" />
        </mxCell>
        <mxCell id="BisqOauFEd4WfF3AfBks-40" value="zavor" style="rounded=1;whiteSpace=wrap;html=1;rotation=0;fillColor=#0050ef;fontColor=#ffffff;strokeColor=#001DBC;" vertex="1" parent="1">
          <mxGeometry x="505" y="450" width="80" height="12.5" as="geometry" />
        </mxCell>
        <mxCell id="BisqOauFEd4WfF3AfBks-41" value="" style="endArrow=classic;startArrow=classic;html=1;rounded=0;" edge="1" parent="1">
          <mxGeometry width="50" height="50" relative="1" as="geometry">
            <mxPoint x="775" y="599.5" as="sourcePoint" />
            <mxPoint x="695" y="599.5" as="targetPoint" />
            <Array as="points" />
          </mxGeometry>
        </mxCell>
        <mxCell id="BisqOauFEd4WfF3AfBks-42" value="" style="endArrow=classic;startArrow=classic;html=1;rounded=0;entryX=0.5;entryY=1;entryDx=0;entryDy=0;" edge="1" parent="1" target="BisqOauFEd4WfF3AfBks-35">
          <mxGeometry width="50" height="50" relative="1" as="geometry">
            <mxPoint x="535" y="760" as="sourcePoint" />
            <mxPoint x="540" y="350" as="targetPoint" />
          </mxGeometry>
        </mxCell>
        <mxCell id="BisqOauFEd4WfF3AfBks-44" value="Locatar" style="shape=umlActor;verticalLabelPosition=bottom;verticalAlign=top;html=1;outlineConnect=0;" vertex="1" parent="1">
          <mxGeometry x="30" y="20" width="30" height="60" as="geometry" />
        </mxCell>
        <mxCell id="BisqOauFEd4WfF3AfBks-45" value="" style="endArrow=none;dashed=1;html=1;rounded=0;" edge="1" parent="1">
          <mxGeometry width="50" height="50" relative="1" as="geometry">
            <mxPoint x="40" y="730" as="sourcePoint" />
            <mxPoint x="40" y="110" as="targetPoint" />
          </mxGeometry>
        </mxCell>
        <mxCell id="BisqOauFEd4WfF3AfBks-47" value="" style="endArrow=classic;html=1;rounded=0;" edge="1" parent="1">
          <mxGeometry width="50" height="50" relative="1" as="geometry">
            <mxPoint x="50" y="210" as="sourcePoint" />
            <mxPoint x="300" y="210" as="targetPoint" />
            <Array as="points" />
          </mxGeometry>
        </mxCell>
        <mxCell id="BisqOauFEd4WfF3AfBks-48" value="" style="endArrow=classic;html=1;rounded=0;" edge="1" parent="1">
          <mxGeometry width="50" height="50" relative="1" as="geometry">
            <mxPoint x="340" y="210" as="sourcePoint" />
            <mxPoint x="768.75" y="210" as="targetPoint" />
          </mxGeometry>
        </mxCell>
        <mxCell id="BisqOauFEd4WfF3AfBks-49" value="1: autorizare" style="text;html=1;align=center;verticalAlign=middle;resizable=0;points=[];autosize=1;strokeColor=none;fillColor=none;" vertex="1" parent="1">
          <mxGeometry x="70" y="190" width="80" height="20" as="geometry" />
        </mxCell>
        <mxCell id="BisqOauFEd4WfF3AfBks-50" value="2: Verificare adresa MAC()&amp;nbsp;" style="text;html=1;align=center;verticalAlign=middle;resizable=0;points=[];autosize=1;strokeColor=none;fillColor=none;" vertex="1" parent="1">
          <mxGeometry x="340" y="190" width="160" height="20" as="geometry" />
        </mxCell>
        <mxCell id="BisqOauFEd4WfF3AfBks-52" value="" style="endArrow=none;dashed=1;html=1;rounded=0;entryX=0.5;entryY=1;entryDx=0;entryDy=0;" edge="1" parent="1" target="BisqOauFEd4WfF3AfBks-2">
          <mxGeometry width="50" height="50" relative="1" as="geometry">
            <mxPoint x="320" y="190" as="sourcePoint" />
            <mxPoint x="350" y="150" as="targetPoint" />
          </mxGeometry>
        </mxCell>
        <mxCell id="BisqOauFEd4WfF3AfBks-53" value="" style="endArrow=classic;html=1;rounded=0;" edge="1" parent="1">
          <mxGeometry width="50" height="50" relative="1" as="geometry">
            <mxPoint x="760" y="230" as="sourcePoint" />
            <mxPoint x="350" y="230" as="targetPoint" />
          </mxGeometry>
        </mxCell>
        <mxCell id="BisqOauFEd4WfF3AfBks-54" value="3: Rezultat" style="text;html=1;align=center;verticalAlign=middle;resizable=0;points=[];autosize=1;strokeColor=none;fillColor=none;" vertex="1" parent="1">
          <mxGeometry x="355" y="210" width="70" height="20" as="geometry" />
        </mxCell>
        <mxCell id="BisqOauFEd4WfF3AfBks-55" value="" style="endArrow=classic;html=1;rounded=0;" edge="1" parent="1">
          <mxGeometry width="50" height="50" relative="1" as="geometry">
            <mxPoint x="300" y="230" as="sourcePoint" />
            <mxPoint x="50" y="230" as="targetPoint" />
          </mxGeometry>
        </mxCell>
        <mxCell id="BisqOauFEd4WfF3AfBks-56" value="4: Rezultat" style="text;html=1;align=center;verticalAlign=middle;resizable=0;points=[];autosize=1;strokeColor=none;fillColor=none;" vertex="1" parent="1">
          <mxGeometry x="75" y="210" width="70" height="20" as="geometry" />
        </mxCell>
        <mxCell id="BisqOauFEd4WfF3AfBks-57" value="" style="endArrow=classic;html=1;rounded=0;" edge="1" parent="1">
          <mxGeometry width="50" height="50" relative="1" as="geometry">
            <mxPoint x="50" y="280" as="sourcePoint" />
            <mxPoint x="300" y="280" as="targetPoint" />
          </mxGeometry>
        </mxCell>
        <mxCell id="BisqOauFEd4WfF3AfBks-58" value="5: Vizualizare loguri" style="text;html=1;align=center;verticalAlign=middle;resizable=0;points=[];autosize=1;strokeColor=none;fillColor=none;" vertex="1" parent="1">
          <mxGeometry x="60" y="250" width="120" height="20" as="geometry" />
        </mxCell>
        <mxCell id="BisqOauFEd4WfF3AfBks-59" value="" style="endArrow=classic;html=1;rounded=0;" edge="1" parent="1">
          <mxGeometry width="50" height="50" relative="1" as="geometry">
            <mxPoint x="330" y="280" as="sourcePoint" />
            <mxPoint x="758.75" y="280" as="targetPoint" />
          </mxGeometry>
        </mxCell>
        <mxCell id="BisqOauFEd4WfF3AfBks-60" value="6: Preluare loguri" style="text;html=1;align=center;verticalAlign=middle;resizable=0;points=[];autosize=1;strokeColor=none;fillColor=none;" vertex="1" parent="1">
          <mxGeometry x="355" y="260" width="110" height="20" as="geometry" />
        </mxCell>
        <mxCell id="BisqOauFEd4WfF3AfBks-61" value="" style="endArrow=classic;html=1;rounded=0;" edge="1" parent="1">
          <mxGeometry width="50" height="50" relative="1" as="geometry">
            <mxPoint x="750" y="300" as="sourcePoint" />
            <mxPoint x="340" y="300" as="targetPoint" />
          </mxGeometry>
        </mxCell>
        <mxCell id="BisqOauFEd4WfF3AfBks-62" value="7: Rezultat" style="text;html=1;align=center;verticalAlign=middle;resizable=0;points=[];autosize=1;strokeColor=none;fillColor=none;" vertex="1" parent="1">
          <mxGeometry x="360" y="280" width="70" height="20" as="geometry" />
        </mxCell>
        <mxCell id="BisqOauFEd4WfF3AfBks-64" value="" style="endArrow=classic;html=1;rounded=0;" edge="1" parent="1">
          <mxGeometry width="50" height="50" relative="1" as="geometry">
            <mxPoint x="300" y="300" as="sourcePoint" />
            <mxPoint x="50" y="300" as="targetPoint" />
          </mxGeometry>
        </mxCell>
        <mxCell id="BisqOauFEd4WfF3AfBks-65" value="8: Rezultat" style="text;html=1;align=center;verticalAlign=middle;resizable=0;points=[];autosize=1;strokeColor=none;fillColor=none;" vertex="1" parent="1">
          <mxGeometry x="70" y="280" width="70" height="20" as="geometry" />
        </mxCell>
        <mxCell id="BisqOauFEd4WfF3AfBks-66" value="" style="endArrow=classic;html=1;rounded=0;" edge="1" parent="1">
          <mxGeometry width="50" height="50" relative="1" as="geometry">
            <mxPoint x="50" y="340" as="sourcePoint" />
            <mxPoint x="300" y="340" as="targetPoint" />
          </mxGeometry>
        </mxCell>
        <mxCell id="BisqOauFEd4WfF3AfBks-67" value="9: Control lumini" style="text;html=1;align=center;verticalAlign=middle;resizable=0;points=[];autosize=1;strokeColor=none;fillColor=none;" vertex="1" parent="1">
          <mxGeometry x="50" y="320" width="100" height="20" as="geometry" />
        </mxCell>
        <mxCell id="BisqOauFEd4WfF3AfBks-69" value="10: LED_on_Off()" style="text;html=1;align=center;verticalAlign=middle;resizable=0;points=[];autosize=1;strokeColor=none;fillColor=none;" vertex="1" parent="1">
          <mxGeometry x="343.75" y="320" width="110" height="20" as="geometry" />
        </mxCell>
        <mxCell id="BisqOauFEd4WfF3AfBks-70" value="" style="endArrow=classic;html=1;rounded=0;" edge="1" parent="1">
          <mxGeometry width="50" height="50" relative="1" as="geometry">
            <mxPoint x="660" y="380" as="sourcePoint" />
            <mxPoint x="590" y="380" as="targetPoint" />
          </mxGeometry>
        </mxCell>
        <mxCell id="BisqOauFEd4WfF3AfBks-71" value="11: LED on_off()" style="text;html=1;align=center;verticalAlign=middle;resizable=0;points=[];autosize=1;strokeColor=none;fillColor=none;" vertex="1" parent="1">
          <mxGeometry x="580" y="360" width="100" height="20" as="geometry" />
        </mxCell>
        <mxCell id="BisqOauFEd4WfF3AfBks-74" value="12: LED on_off()" style="text;html=1;align=center;verticalAlign=middle;resizable=0;points=[];autosize=1;strokeColor=none;fillColor=none;" vertex="1" parent="1">
          <mxGeometry x="485" y="370" width="100" height="20" as="geometry" />
        </mxCell>
        <mxCell id="BisqOauFEd4WfF3AfBks-79" value="" style="endArrow=classic;html=1;rounded=0;entryX=1.3;entryY=0.14;entryDx=0;entryDy=0;entryPerimeter=0;" edge="1" parent="1" target="BisqOauFEd4WfF3AfBks-33">
          <mxGeometry width="50" height="50" relative="1" as="geometry">
            <mxPoint x="560" y="398" as="sourcePoint" />
            <mxPoint x="560" y="400" as="targetPoint" />
          </mxGeometry>
        </mxCell>
        <mxCell id="BisqOauFEd4WfF3AfBks-80" value="" style="endArrow=classic;html=1;rounded=0;exitX=-0.043;exitY=1.15;exitDx=0;exitDy=0;exitPerimeter=0;" edge="1" parent="1" source="BisqOauFEd4WfF3AfBks-69">
          <mxGeometry width="50" height="50" relative="1" as="geometry">
            <mxPoint x="400" y="430" as="sourcePoint" />
            <mxPoint x="660" y="340" as="targetPoint" />
          </mxGeometry>
        </mxCell>
        <mxCell id="BisqOauFEd4WfF3AfBks-81" value="" style="endArrow=classic;html=1;rounded=0;entryX=0;entryY=0.75;entryDx=0;entryDy=0;" edge="1" parent="1" target="BisqOauFEd4WfF3AfBks-21">
          <mxGeometry width="50" height="50" relative="1" as="geometry">
            <mxPoint x="505" y="420" as="sourcePoint" />
            <mxPoint x="555" y="370" as="targetPoint" />
          </mxGeometry>
        </mxCell>
        <mxCell id="BisqOauFEd4WfF3AfBks-82" value="13: Rezultat" style="text;html=1;align=center;verticalAlign=middle;resizable=0;points=[];autosize=1;strokeColor=none;fillColor=none;" vertex="1" parent="1">
          <mxGeometry x="485" y="400" width="80" height="20" as="geometry" />
        </mxCell>
        <mxCell id="BisqOauFEd4WfF3AfBks-83" value="" style="endArrow=classic;html=1;rounded=0;" edge="1" parent="1">
          <mxGeometry width="50" height="50" relative="1" as="geometry">
            <mxPoint x="590" y="420" as="sourcePoint" />
            <mxPoint x="660" y="420" as="targetPoint" />
          </mxGeometry>
        </mxCell>
        <mxCell id="BisqOauFEd4WfF3AfBks-84" value="14: Rezultat" style="text;html=1;align=center;verticalAlign=middle;resizable=0;points=[];autosize=1;strokeColor=none;fillColor=none;" vertex="1" parent="1">
          <mxGeometry x="580" y="400" width="80" height="20" as="geometry" />
        </mxCell>
        <mxCell id="BisqOauFEd4WfF3AfBks-85" value="" style="endArrow=classic;html=1;rounded=0;" edge="1" parent="1">
          <mxGeometry width="50" height="50" relative="1" as="geometry">
            <mxPoint x="660" y="440" as="sourcePoint" />
            <mxPoint x="340" y="440" as="targetPoint" />
          </mxGeometry>
        </mxCell>
        <mxCell id="BisqOauFEd4WfF3AfBks-86" value="15: Rezultat" style="text;html=1;align=center;verticalAlign=middle;resizable=0;points=[];autosize=1;strokeColor=none;fillColor=none;" vertex="1" parent="1">
          <mxGeometry x="330" y="420" width="80" height="20" as="geometry" />
        </mxCell>
        <mxCell id="BisqOauFEd4WfF3AfBks-87" value="" style="endArrow=classic;html=1;rounded=0;" edge="1" parent="1">
          <mxGeometry width="50" height="50" relative="1" as="geometry">
            <mxPoint x="300" y="440" as="sourcePoint" />
            <mxPoint x="40" y="440" as="targetPoint" />
          </mxGeometry>
        </mxCell>
        <mxCell id="BisqOauFEd4WfF3AfBks-88" value="16: Rezultat" style="text;html=1;align=center;verticalAlign=middle;resizable=0;points=[];autosize=1;strokeColor=none;fillColor=none;" vertex="1" parent="1">
          <mxGeometry x="60" y="420" width="80" height="20" as="geometry" />
        </mxCell>
        <mxCell id="BisqOauFEd4WfF3AfBks-90" value="" style="endArrow=classic;html=1;rounded=0;" edge="1" parent="1">
          <mxGeometry width="50" height="50" relative="1" as="geometry">
            <mxPoint x="40" y="481.25" as="sourcePoint" />
            <mxPoint x="290" y="481" as="targetPoint" />
          </mxGeometry>
        </mxCell>
        <mxCell id="BisqOauFEd4WfF3AfBks-91" value="17: Deschidere usa" style="text;html=1;align=center;verticalAlign=middle;resizable=0;points=[];autosize=1;strokeColor=none;fillColor=none;" vertex="1" parent="1">
          <mxGeometry x="30" y="460" width="120" height="20" as="geometry" />
        </mxCell>
        <mxCell id="BisqOauFEd4WfF3AfBks-92" value="" style="endArrow=classic;html=1;rounded=0;" edge="1" parent="1">
          <mxGeometry width="50" height="50" relative="1" as="geometry">
            <mxPoint x="340" y="481.25" as="sourcePoint" />
            <mxPoint x="440" y="480" as="targetPoint" />
          </mxGeometry>
        </mxCell>
        <mxCell id="BisqOauFEd4WfF3AfBks-93" value="18: Verificare MAC" style="text;html=1;align=center;verticalAlign=middle;resizable=0;points=[];autosize=1;strokeColor=none;fillColor=none;" vertex="1" parent="1">
          <mxGeometry x="320" y="460" width="120" height="20" as="geometry" />
        </mxCell>
        <mxCell id="BisqOauFEd4WfF3AfBks-94" value="" style="endArrow=classic;html=1;rounded=0;" edge="1" parent="1">
          <mxGeometry width="50" height="50" relative="1" as="geometry">
            <mxPoint x="450" y="500" as="sourcePoint" />
            <mxPoint x="340" y="500" as="targetPoint" />
          </mxGeometry>
        </mxCell>
        <mxCell id="BisqOauFEd4WfF3AfBks-95" value="19: Rezultat" style="text;html=1;align=center;verticalAlign=middle;resizable=0;points=[];autosize=1;strokeColor=none;fillColor=none;" vertex="1" parent="1">
          <mxGeometry x="345" y="480" width="80" height="20" as="geometry" />
        </mxCell>
        <mxCell id="BisqOauFEd4WfF3AfBks-97" value="20: Deschidere zavor" style="text;html=1;align=center;verticalAlign=middle;resizable=0;points=[];autosize=1;strokeColor=none;fillColor=none;" vertex="1" parent="1">
          <mxGeometry x="335" y="520" width="130" height="20" as="geometry" />
        </mxCell>
        <mxCell id="BisqOauFEd4WfF3AfBks-98" value="" style="rounded=1;whiteSpace=wrap;html=1;fillColor=#fff2cc;strokeColor=#d6b656;" vertex="1" parent="1">
          <mxGeometry x="560" y="480" width="20" height="150" as="geometry" />
        </mxCell>
        <mxCell id="BisqOauFEd4WfF3AfBks-99" value="" style="endArrow=classic;html=1;rounded=0;entryX=0;entryY=0.75;entryDx=0;entryDy=0;" edge="1" parent="1" target="BisqOauFEd4WfF3AfBks-98">
          <mxGeometry width="50" height="50" relative="1" as="geometry">
            <mxPoint x="545" y="590" as="sourcePoint" />
            <mxPoint x="595" y="540" as="targetPoint" />
          </mxGeometry>
        </mxCell>
        <mxCell id="BisqOauFEd4WfF3AfBks-100" value="" style="endArrow=classic;html=1;rounded=0;entryX=-0.2;entryY=0.393;entryDx=0;entryDy=0;entryPerimeter=0;" edge="1" parent="1" target="BisqOauFEd4WfF3AfBks-98">
          <mxGeometry width="50" height="50" relative="1" as="geometry">
            <mxPoint x="340" y="540" as="sourcePoint" />
            <mxPoint x="550" y="540" as="targetPoint" />
          </mxGeometry>
        </mxCell>
        <mxCell id="BisqOauFEd4WfF3AfBks-101" value="" style="endArrow=classic;html=1;rounded=0;exitX=-0.1;exitY=0.593;exitDx=0;exitDy=0;exitPerimeter=0;entryX=1.4;entryY=0.575;entryDx=0;entryDy=0;entryPerimeter=0;" edge="1" parent="1" source="BisqOauFEd4WfF3AfBks-98" target="BisqOauFEd4WfF3AfBks-35">
          <mxGeometry width="50" height="50" relative="1" as="geometry">
            <mxPoint x="400" y="430" as="sourcePoint" />
            <mxPoint x="450" y="380" as="targetPoint" />
          </mxGeometry>
        </mxCell>
        <mxCell id="BisqOauFEd4WfF3AfBks-102" value="21. Deschide()" style="text;html=1;align=center;verticalAlign=middle;resizable=0;points=[];autosize=1;strokeColor=none;fillColor=none;" vertex="1" parent="1">
          <mxGeometry x="520" y="545" width="90" height="20" as="geometry" />
        </mxCell>
        <mxCell id="BisqOauFEd4WfF3AfBks-103" value="22: Rezultat" style="text;html=1;align=center;verticalAlign=middle;resizable=0;points=[];autosize=1;strokeColor=none;fillColor=none;" vertex="1" parent="1">
          <mxGeometry x="525" y="573.75" width="80" height="20" as="geometry" />
        </mxCell>
        <mxCell id="BisqOauFEd4WfF3AfBks-104" value="" style="endArrow=classic;html=1;rounded=0;exitX=0;exitY=0.867;exitDx=0;exitDy=0;exitPerimeter=0;" edge="1" parent="1" source="BisqOauFEd4WfF3AfBks-98">
          <mxGeometry width="50" height="50" relative="1" as="geometry">
            <mxPoint x="403.75" y="650" as="sourcePoint" />
            <mxPoint x="340" y="610" as="targetPoint" />
          </mxGeometry>
        </mxCell>
        <mxCell id="BisqOauFEd4WfF3AfBks-105" value="23: Rezultat" style="text;html=1;align=center;verticalAlign=middle;resizable=0;points=[];autosize=1;strokeColor=none;fillColor=none;" vertex="1" parent="1">
          <mxGeometry x="355" y="586.25" width="80" height="20" as="geometry" />
        </mxCell>
        <mxCell id="BisqOauFEd4WfF3AfBks-106" value="" style="endArrow=classic;html=1;rounded=0;" edge="1" parent="1">
          <mxGeometry width="50" height="50" relative="1" as="geometry">
            <mxPoint x="300" y="609" as="sourcePoint" />
            <mxPoint x="50" y="610" as="targetPoint" />
          </mxGeometry>
        </mxCell>
        <mxCell id="BisqOauFEd4WfF3AfBks-107" value="24: Rezultat" style="text;html=1;align=center;verticalAlign=middle;resizable=0;points=[];autosize=1;strokeColor=none;fillColor=none;" vertex="1" parent="1">
          <mxGeometry x="75" y="580" width="80" height="20" as="geometry" />
        </mxCell>
      </root>
    </mxGraphModel>
  </diagram>
</mxfile>
